<?xml version="1.0" standalone="no"?>
<!DOCTYPE svg PUBLIC "-//W3C//DTD SVG 20010904//EN"
 "http://www.w3.org/TR/2001/REC-SVG-20010904/DTD/svg10.dtd">
<svg version="1.0" xmlns="http://www.w3.org/2000/svg"
 width="699.000000pt" height="699.000000pt" viewBox="0 0 699.000000 699.000000"
 preserveAspectRatio="xMidYMid meet">
<metadata>
Created by potrace 1.14, written by Peter Selinger 2001-2017
</metadata>
<g transform="translate(0.000000,699.000000) scale(0.100000,-0.100000)"
fill="#000000" stroke="none">
<path d="M4532 6508 c3 -7 13 -15 22 -16 12 -3 17 1 14 10 -3 7 -13 15 -22 16
-12 3 -17 -1 -14 -10z"/>
<path d="M1270 6475 c0 -8 -7 -15 -16 -15 -9 0 -18 -9 -21 -20 -5 -18 -15 -24
-35 -21 -7 1 -12 -33 -10 -68 0 -8 -5 -26 -10 -40 -6 -14 -12 -30 -12 -36 -11
-83 -20 -115 -32 -115 -8 0 -14 -1 -15 -2 0 -2 -3 -30 -6 -63 -3 -33 -11 -63
-18 -67 -10 -6 -13 -44 -14 -145 -2 -150 -8 -206 -23 -197 -5 3 -7 12 -4 20 3
8 1 14 -4 14 -6 0 -10 -48 -10 -117 1 -101 3 -115 14 -100 13 16 14 16 20 -5
3 -13 6 -42 6 -65 0 -41 12 -57 24 -30 3 8 5 7 4 -3 -3 -26 13 -60 28 -60 8 0
19 -11 24 -25 5 -14 16 -25 25 -25 8 0 15 -4 15 -8 0 -5 12 -14 26 -20 14 -7
22 -17 19 -22 -3 -6 1 -13 9 -16 9 -3 16 -15 16 -25 0 -10 6 -19 14 -19 10 0
14 11 13 38 -2 27 -6 36 -17 34 -8 -2 -12 0 -8 4 4 4 4 12 0 18 -5 6 -6 34 -4
63 3 40 7 50 18 46 9 -3 13 -12 10 -19 -3 -7 -1 -16 5 -19 5 -4 12 1 15 10 6
14 8 13 21 -5 8 -11 19 -18 24 -15 5 4 9 2 9 -4 0 -5 -6 -12 -12 -14 -10 -4
-10 -6 -1 -6 12 -1 20 -32 27 -101 3 -29 7 -36 30 -38 14 -2 26 -9 26 -15 0
-7 4 -6 10 3 9 13 10 13 11 0 3 -60 19 -120 19 -74 0 16 2 17 10 4 5 -8 10
-27 10 -42 0 -16 4 -28 9 -28 10 0 27 -39 23 -52 -1 -5 4 -8 12 -8 18 0 22 -6
30 -46 7 -30 5 -31 -36 -40 -24 -6 -42 -15 -40 -22 1 -7 -5 -12 -14 -12 -8 0
-23 -7 -32 -16 -10 -11 -17 -13 -20 -5 -2 6 -13 11 -24 11 -11 0 -22 8 -25 19
-3 11 -14 22 -25 24 -11 3 -17 10 -13 16 3 6 1 11 -4 11 -6 0 -11 -6 -11 -12
0 -7 -5 -5 -11 5 -5 9 -21 17 -34 17 -36 0 -54 10 -48 26 4 11 -2 14 -26 12
-31 -2 -31 -3 -31 -58 0 -66 5 -75 48 -85 17 -3 32 -12 32 -20 0 -7 11 -16 25
-19 14 -4 25 -13 25 -20 0 -12 34 -30 52 -27 4 0 5 -5 2 -13 -3 -8 -1 -17 5
-20 16 -10 61 5 61 20 0 8 7 14 15 14 9 0 20 11 25 25 5 14 14 25 19 25 6 0 8
7 5 15 -5 12 2 15 34 15 25 0 47 7 57 17 13 13 18 14 25 3 4 -7 13 -9 19 -6 7
5 14 -4 17 -23 4 -17 12 -31 18 -30 6 1 32 1 59 0 43 -1 47 -3 47 -25 0 -14
-5 -28 -10 -31 -6 -3 -7 -17 -4 -31 4 -14 2 -24 -5 -24 -6 0 -11 -9 -11 -20 0
-16 7 -20 30 -20 17 0 30 5 30 11 0 6 -7 9 -15 5 -11 -4 -15 1 -15 19 0 29 16
34 23 8 4 -14 5 -12 6 5 1 16 7 22 25 22 33 0 57 10 50 21 -7 11 26 23 79 28
4 1 7 8 7 16 0 8 9 15 20 15 15 0 20 7 20 26 0 22 4 25 28 23 16 -2 50 5 75
16 40 16 47 23 47 47 0 15 7 31 15 35 10 6 16 27 18 63 2 52 4 55 30 58 19 2
27 -1 27 -12 0 -21 58 -22 66 -1 4 8 12 15 19 15 7 0 15 12 18 28 4 15 21 37
39 50 18 12 27 22 20 22 -35 0 4 27 66 45 23 7 30 25 10 25 -7 1 2 7 20 15 18
8 32 18 31 22 -5 32 3 52 24 55 14 2 22 10 22 22 0 11 6 21 13 24 6 2 12 10
12 18 0 8 11 19 24 24 15 5 27 20 31 39 4 17 11 29 16 26 12 -8 23 40 15 69
-5 22 -8 23 -56 13 -27 -5 -47 -14 -44 -19 4 -5 -2 -27 -11 -49 -17 -36 -21
-39 -57 -39 -24 0 -41 5 -44 14 -3 8 -19 16 -35 20 -16 3 -28 11 -27 18 2 7
-13 18 -32 24 -23 9 -28 13 -15 14 14 1 8 6 -18 18 -35 16 -38 20 -34 49 5 29
3 32 -21 35 -15 2 -27 9 -27 16 0 7 -5 16 -10 20 -6 4 -16 19 -24 34 -7 14
-22 29 -32 31 -11 3 -19 13 -19 24 0 10 -9 24 -20 31 -15 9 -19 19 -14 37 5
19 2 25 -9 25 -9 0 -17 10 -19 23 -2 14 -10 22 -23 22 -11 0 -21 8 -23 18 -3
12 -13 17 -38 17 -33 0 -34 -1 -34 -37 0 -37 19 -87 20 -53 1 37 20 -17 20
-57 0 -32 4 -43 15 -43 8 0 14 -3 14 -7 -1 -5 2 -23 6 -41 5 -22 12 -31 21
-28 11 4 14 -10 14 -69 0 -64 3 -76 20 -85 10 -6 22 -26 26 -45 3 -19 11 -35
16 -35 6 0 8 -7 4 -15 -3 -10 1 -15 12 -15 10 0 23 -5 30 -12 15 -15 16 -73 1
-99 -10 -20 -11 -20 -25 -2 -14 17 -15 15 -11 -15 2 -22 -1 -36 -10 -39 -7 -3
-13 -11 -13 -18 0 -19 -45 -45 -80 -45 -30 0 -30 0 -14 24 9 15 21 22 30 19 8
-3 14 -1 14 5 0 11 -50 23 -62 15 -5 -2 -8 -13 -8 -24 0 -18 -4 -20 -32 -14
-47 10 -47 11 -37 56 8 33 7 45 -6 59 -9 10 -15 30 -13 46 3 24 9 31 42 39 48
12 57 31 22 45 -29 11 -26 35 5 43 13 3 17 11 13 21 -3 9 -1 22 5 30 6 7 9 24
7 37 -3 13 -5 32 -5 42 -1 10 -9 17 -21 17 -30 0 -90 33 -85 48 3 7 1 20 -4
30 -5 9 -12 25 -15 34 -4 13 -13 16 -40 11 -29 -4 -36 -2 -36 11 0 9 6 16 14
16 24 0 27 28 3 36 -12 5 -26 8 -32 9 -5 0 -11 15 -13 33 -2 24 -8 32 -23 32
-10 0 -19 6 -19 14 0 16 -14 21 -84 31 -30 4 -44 10 -37 14 14 9 -18 21 -58
21 -14 0 -33 8 -43 17 -11 10 -31 18 -46 19 -15 1 -31 3 -36 3 -5 1 -6 16 -3
35 3 19 3 37 -1 41 -4 3 -8 23 -9 43 -2 29 4 42 23 60 21 20 25 31 22 75 -3
45 -6 52 -25 55 -14 2 -23 10 -23 20 0 14 -2 15 -9 3 -7 -11 -11 -5 -16 22 -4
19 -4 40 -1 46 4 5 4 22 0 36 -4 18 -13 25 -29 25 -36 0 -54 10 -48 26 4 11
-5 14 -36 14 -30 0 -41 -4 -41 -15z m30 -690 c0 -23 -18 -26 -62 -13 -42 12
-42 12 -13 16 17 2 34 7 39 12 12 11 36 1 36 -15z m-3 -367 c-3 -8 -6 -5 -6 6
-1 11 2 17 5 13 3 -3 4 -12 1 -19z m613 -86 c0 -7 -4 -10 -10 -7 -5 3 -10 16
-10 28 0 18 2 19 10 7 5 -8 10 -21 10 -28z m270 -202 c0 -5 -4 -10 -10 -10 -5
0 -10 5 -10 10 0 6 5 10 10 10 6 0 10 -4 10 -10z m-30 -57 c0 -16 -4 -34 -9
-42 -12 -19 -32 18 -24 47 8 32 33 28 33 -5z m-55 -52 c3 -5 1 -12 -5 -16 -5
-3 -10 1 -10 9 0 18 6 21 15 7z m75 -87 c0 -8 -4 -12 -10 -9 -5 3 -10 10 -10
16 0 5 5 9 10 9 6 0 10 -7 10 -16z"/>
<path d="M4468 6379 c-10 -5 -15 -16 -12 -24 4 -10 0 -15 -11 -15 -23 0 -15
-34 10 -39 11 -2 23 -8 26 -13 3 -5 10 5 14 24 16 69 9 88 -27 67z"/>
<path d="M1540 6360 c0 -11 5 -20 10 -20 6 0 10 9 10 20 0 11 -4 20 -10 20 -5
0 -10 -9 -10 -20z"/>
<path d="M4470 6130 c0 -22 7 -25 29 -11 11 7 9 11 -8 20 -18 10 -21 9 -21 -9z"/>
<path d="M4610 6130 c0 -5 5 -10 10 -10 6 0 10 5 10 10 0 6 -4 10 -10 10 -5 0
-10 -4 -10 -10z"/>
<path d="M4500 6100 c0 -5 5 -10 10 -10 6 0 10 5 10 10 0 6 -4 10 -10 10 -5 0
-10 -4 -10 -10z"/>
<path d="M4607 6104 c-15 -15 -6 -32 13 -27 12 3 19 10 17 16 -4 14 -21 19
-30 11z"/>
<path d="M4492 6055 c-7 -14 -10 -38 -7 -53 4 -22 4 -23 -3 -7 -8 18 -10 16
-16 -12 -6 -27 -13 -33 -34 -34 -24 -2 -24 -2 -4 -6 27 -5 29 -23 3 -23 -11 0
-22 -4 -25 -9 -3 -4 -26 -7 -51 -6 -38 1 -45 -1 -45 -17 0 -15 4 -17 18 -10
26 14 81 2 93 -19 11 -22 69 -27 69 -6 0 7 9 20 20 30 14 12 20 29 20 58 0 31
3 40 14 36 15 -6 30 19 20 34 -3 5 2 12 10 15 9 3 16 15 16 25 0 14 -7 19 -29
19 -16 0 -36 2 -43 5 -9 4 -19 -4 -26 -20z"/>
<path d="M1500 6050 c0 -5 5 -10 10 -10 6 0 10 5 10 10 0 6 -4 10 -10 10 -5 0
-10 -4 -10 -10z"/>
<path d="M4700 5773 c-6 -44 -5 -48 7 -46 7 2 16 -9 19 -23 4 -17 11 -23 21
-20 8 3 19 6 24 6 12 0 -1 63 -15 73 -6 4 -19 5 -28 3 -10 -2 -19 3 -21 13 -3
11 -5 10 -7 -6z"/>
<path d="M2321 5564 c0 -11 3 -14 6 -6 3 7 2 16 -1 19 -3 4 -6 -2 -5 -13z"/>
<path d="M2048 5335 c3 -29 8 -35 28 -35 12 0 26 5 30 12 5 7 1 9 -13 6 -12
-3 -20 -1 -20 6 1 32 -4 46 -16 46 -9 0 -12 -11 -9 -35z"/>
<path d="M6778 5352 c-33 -7 -18 -53 33 -103 23 -22 37 -28 67 -26 20 1 54 -2
75 -6 33 -7 37 -6 37 12 0 11 -8 22 -17 24 -17 4 -17 5 0 6 13 1 17 10 17 36
l0 35 -52 1 c-29 1 -63 0 -76 -1 -13 -1 -33 5 -45 12 -12 8 -30 12 -39 10z"/>
<path d="M2137 5283 c-4 -3 -7 -11 -7 -17 0 -6 5 -5 12 2 6 6 9 14 7 17 -3 3
-9 2 -12 -2z"/>
<path d="M1170 5071 c0 -39 2 -41 30 -41 28 0 30 3 30 35 0 24 -5 35 -14 35
-8 0 -21 3 -30 6 -13 5 -16 -2 -16 -35z"/>
<path d="M1293 4643 c-20 -3 -30 -9 -27 -17 3 -8 -9 -16 -33 -22 -22 -6 -37
-15 -35 -23 1 -7 -6 -15 -16 -18 -16 -4 -19 -14 -18 -76 1 -81 -12 -325 -20
-374 -4 -27 1 -38 26 -63 17 -16 37 -30 45 -30 8 0 15 -7 15 -15 0 -8 9 -15
20 -15 11 0 20 -7 20 -15 0 -8 9 -15 20 -15 13 0 17 5 14 14 -4 9 2 16 17 18
17 2 23 11 26 38 2 19 10 38 18 43 11 6 15 26 15 73 0 57 3 67 20 71 11 3 20
14 20 24 0 10 9 23 20 29 10 6 22 26 26 45 3 19 10 33 14 30 4 -3 11 7 14 21
4 15 6 27 4 28 -39 17 -58 49 -37 62 5 3 7 10 4 15 -6 8 0 12 44 25 11 4 12 7
3 16 -7 7 -12 20 -12 30 0 11 -7 18 -20 18 -13 0 -20 7 -20 20 0 14 -7 20 -24
20 -32 0 -87 20 -81 30 4 6 -23 24 -28 18 -1 0 -16 -3 -34 -5z"/>
<path d="M1475 4590 c3 -5 10 -10 16 -10 5 0 9 5 9 10 0 6 -7 10 -16 10 -8 0
-12 -4 -9 -10z"/>
<path d="M1597 4571 c-2 -10 -2 -23 2 -28 7 -10 91 -11 91 -1 0 12 -22 21 -52
20 -22 0 -28 3 -24 14 3 8 2 14 -3 14 -5 0 -11 -9 -14 -19z"/>
<path d="M1750 4580 c0 -5 5 -10 11 -10 5 0 7 5 4 10 -3 6 -8 10 -11 10 -2 0
-4 -4 -4 -10z"/>
<path d="M5487 4360 c-4 -18 -14 -20 -74 -20 -86 0 -110 -7 -116 -32 -3 -11
-10 -17 -16 -14 -5 4 -15 -3 -21 -14 -7 -13 -18 -19 -26 -16 -10 4 -14 -2 -14
-20 0 -19 -4 -25 -15 -20 -10 3 -17 -3 -21 -19 -3 -14 -10 -25 -16 -25 -5 0
-6 -5 -3 -10 3 -6 0 -13 -9 -16 -8 -3 -12 -12 -9 -20 3 -8 -1 -14 -10 -14 -37
0 -39 -219 -2 -246 9 -7 14 -17 10 -23 -4 -7 3 -11 17 -11 133 -2 172 -6 176
-17 4 -15 192 -19 192 -4 0 5 9 11 20 14 12 3 20 14 20 26 0 12 6 21 14 21 19
0 23 22 25 134 2 94 -8 131 -34 135 -5 0 -10 16 -10 34 l0 32 95 0 94 0 10
-33 c5 -18 14 -31 20 -29 17 7 58 -12 51 -23 -4 -6 7 -10 27 -9 27 0 29 2 13
9 -19 7 -18 8 7 15 14 4 28 16 31 27 9 31 -4 88 -20 88 -7 0 -16 6 -19 14 -3
8 -29 20 -57 27 -40 9 -47 14 -32 19 14 5 2 9 -39 14 -45 6 -59 12 -63 27 -5
17 -15 19 -98 19 -84 0 -93 -2 -98 -20z m-117 -350 c0 -13 -5 -18 -15 -14 -8
4 -15 12 -15 20 0 8 7 14 15 14 8 0 15 -9 15 -20z"/>
<path d="M1122 4120 c0 -14 2 -19 5 -12 2 6 2 18 0 25 -3 6 -5 1 -5 -13z"/>
<path d="M5840 4045 c0 -8 -7 -15 -15 -15 -14 0 -20 -22 -17 -62 1 -12 -5 -18
-18 -18 -13 0 -20 -7 -20 -20 0 -17 -7 -20 -39 -20 -36 0 -39 -3 -43 -30 -5
-36 -2 -40 35 -33 18 4 27 12 27 25 0 10 4 17 9 13 6 -3 15 3 21 14 6 13 16
18 27 14 9 -4 21 1 29 12 10 14 14 15 14 4 1 -24 30 22 30 47 0 16 7 24 23 27
21 3 21 4 2 12 -11 5 -26 17 -33 27 -16 22 -32 23 -32 3z m-106 -171 c4 -10 1
-14 -6 -12 -15 5 -23 28 -10 28 5 0 13 -7 16 -16z"/>
<path d="M3752 3943 c-12 -2 -20 -8 -17 -12 2 -5 -31 -12 -74 -15 -67 -6 -80
-10 -84 -27 -3 -13 -14 -19 -32 -19 -20 0 -26 -4 -21 -15 4 -12 -3 -15 -29
-15 -24 0 -35 -5 -35 -14 0 -10 -16 -17 -45 -21 -25 -4 -43 -12 -42 -19 1 -6
-14 -12 -35 -14 -30 -3 -38 -7 -38 -23 0 -15 -7 -19 -36 -19 -27 0 -37 -5 -41
-19 -3 -12 -17 -22 -33 -26 -25 -5 -45 -33 -41 -57 2 -13 -17 -9 -22 5 -3 6
-8 -7 -12 -31 -5 -28 -12 -41 -20 -38 -9 3 -14 -15 -17 -67 -2 -40 -2 -80 0
-90 4 -17 5 -17 18 0 13 17 13 17 14 1 0 -10 8 -18 18 -18 13 0 14 2 4 9 -10
6 -5 10 17 14 25 5 31 12 37 42 8 43 37 50 33 8 -5 -58 5 -68 88 -82 52 -9 72
-16 62 -22 -15 -9 -16 -9 51 -13 14 -1 49 -3 78 -4 39 -2 52 -6 52 -17 0 -22
33 -18 53 5 9 11 24 20 32 20 8 0 14 5 13 12 -2 6 8 17 22 25 14 7 18 13 10
13 -10 0 -7 5 8 16 12 8 20 19 17 24 -3 4 0 10 6 12 14 5 25 143 15 182 -5 21
-12 26 -37 26 -17 0 -39 -4 -49 -10 -13 -7 -19 -6 -23 4 -7 18 1 26 28 26 31
0 51 25 36 44 -6 7 -8 21 -5 30 4 11 2 16 -7 14 -7 -2 -14 5 -17 14 -2 13 7
18 42 23 25 4 43 11 41 16 -15 24 122 19 191 -8 13 -5 37 44 28 58 -3 6 -13 8
-21 5 -9 -4 -17 1 -20 14 -3 11 -12 20 -19 20 -8 0 -14 7 -14 15 0 18 -20 20
-20 3 0 -7 -5 -5 -11 5 -10 17 -43 20 -97 10z m-332 -394 c0 -25 -33 -22 -38
4 -2 12 3 17 17 17 15 0 21 -6 21 -21z m-40 -40 c0 -5 -7 -9 -15 -9 -8 0 -15
7 -15 15 0 9 6 12 15 9 8 -4 15 -10 15 -15z"/>
<path d="M3930 3900 c0 -5 5 -10 10 -10 6 0 10 5 10 10 0 6 -4 10 -10 10 -5 0
-10 -4 -10 -10z"/>
<path d="M3960 3786 c0 -9 7 -16 16 -16 9 0 14 5 12 12 -6 18 -28 21 -28 4z"/>
<path d="M4047 3689 c-9 -43 -2 -65 22 -72 11 -3 17 2 18 14 1 11 -2 19 -7 19
-4 0 -12 17 -17 38 l-9 37 -7 -36z"/>
<path d="M3045 3440 c3 -5 8 -10 11 -10 2 0 4 5 4 10 0 6 -5 10 -11 10 -5 0
-7 -4 -4 -10z"/>
<path d="M6960 3210 c0 -5 7 -10 15 -10 8 0 15 5 15 10 0 6 -7 10 -15 10 -8 0
-15 -4 -15 -10z"/>
<path d="M6950 3170 c-6 -11 -16 -19 -23 -17 -7 1 -12 -12 -14 -34 -2 -31 2
-38 20 -43 53 -14 57 -10 57 54 0 46 -3 60 -15 60 -8 0 -19 -9 -25 -20z"/>
<path d="M4880 2790 c0 -5 5 -10 10 -10 6 0 10 5 10 10 0 6 -4 10 -10 10 -5 0
-10 -4 -10 -10z"/>
<path d="M4810 2745 c0 -22 3 -24 33 -21 17 3 33 6 35 7 1 1 8 2 14 3 7 0 14
9 16 19 3 14 -4 17 -47 17 -48 0 -51 -2 -51 -25z"/>
<path d="M5711 2288 c-1 -21 -28 -35 -61 -31 -98 12 -216 6 -234 -12 -8 -8
-20 -15 -26 -15 -6 0 -15 -11 -20 -25 -8 -20 -16 -25 -43 -25 -18 0 -42 -7
-53 -15 -10 -8 -29 -15 -41 -15 -21 0 -22 -3 -16 -37 3 -21 6 -46 5 -57 -1
-10 8 -20 19 -23 17 -5 19 -14 19 -78 0 -64 2 -73 18 -71 9 2 18 13 20 25 2
15 9 21 18 17 10 -4 14 2 13 17 0 12 -3 16 -6 9 -10 -25 -33 9 -33 49 0 21 -4
41 -10 44 -5 3 -10 12 -10 18 0 7 4 6 10 -3 8 -12 10 -11 10 8 0 12 -3 21 -7
20 -5 -2 -9 2 -11 7 -2 6 13 14 33 19 22 6 34 14 31 22 -7 17 52 28 105 21 23
-3 42 -7 45 -9 2 -2 4 -46 6 -96 1 -81 4 -92 19 -92 10 0 26 9 36 19 12 12 39
22 77 26 38 5 53 10 45 16 -10 6 -8 9 8 9 32 0 53 10 53 26 0 8 7 17 15 20 8
4 18 24 21 46 5 27 11 38 20 34 8 -3 14 1 14 9 0 9 -6 12 -15 9 -14 -6 -20 7
-15 31 1 5 -7 15 -16 22 -10 7 -12 13 -6 13 19 0 14 18 -7 25 -11 3 -22 14
-24 23 -4 16 -5 16 -6 0z"/>
<path d="M5120 2135 c0 -8 9 -15 21 -15 11 0 18 4 14 9 -3 5 5 12 17 14 15 3
9 5 -14 6 -28 1 -38 -3 -38 -14z"/>
<path d="M5040 2100 c0 -5 5 -10 11 -10 5 0 7 5 4 10 -3 6 -8 10 -11 10 -2 0
-4 -4 -4 -10z"/>
<path d="M4888 2033 c-13 -3 -18 -15 -18 -39 0 -30 3 -34 25 -34 23 0 25 -3
22 -50 -2 -47 -18 -67 -30 -37 -3 6 -6 2 -6 -11 -1 -20 3 -23 27 -20 15 2 26
8 24 16 -1 7 11 15 28 18 19 4 30 12 29 23 -1 24 -17 68 -18 52 -1 -20 -14 -5
-18 20 -2 14 3 23 17 26 11 3 20 14 20 24 0 16 -7 19 -42 18 -24 -1 -51 -3
-60 -6z"/>
<path d="M4730 1900 c-5 -10 -23 -20 -40 -23 -18 -4 -30 -13 -30 -22 0 -8 -4
-16 -10 -16 -5 -1 -16 -2 -22 -3 -7 0 -14 -11 -16 -23 -2 -14 -8 -20 -18 -16
-10 3 -12 0 -9 -10 9 -22 123 -18 136 5 5 10 24 20 42 23 17 4 41 13 51 21 18
13 18 15 3 32 -9 10 -17 26 -17 35 0 22 -58 20 -70 -3z"/>
<path d="M5235 1900 c3 -5 8 -10 11 -10 2 0 4 5 4 10 0 6 -5 10 -11 10 -5 0
-7 -4 -4 -10z"/>
<path d="M5228 1873 c7 -3 16 -2 19 1 4 3 -2 6 -13 5 -11 0 -14 -3 -6 -6z"/>
<path d="M960 1750 c0 -5 18 -10 40 -10 22 0 40 5 40 10 0 6 -18 10 -40 10
-22 0 -40 -4 -40 -10z"/>
<path d="M938 1713 c-20 -5 -22 -12 -10 -31 7 -10 15 -10 36 -2 15 5 38 10 52
10 15 0 24 6 24 15 0 11 -11 15 -42 14 -24 -1 -51 -3 -60 -6z"/>
<path d="M1170 1510 c0 -30 -4 -40 -16 -40 -8 0 -13 -4 -9 -9 3 -6 -2 -14 -11
-19 -16 -9 -15 -10 3 -16 11 -4 33 -6 49 -5 16 0 39 -2 50 -6 17 -5 26 0 43
24 14 20 31 31 46 31 16 0 23 5 19 13 -3 9 9 17 33 25 l38 11 -35 -6 c-19 -3
-62 -6 -95 -7 -55 -1 -60 1 -63 22 -3 16 -10 22 -28 22 -21 0 -24 -4 -24 -40z"/>
<path d="M1335 1410 c-3 -5 -3 -14 0 -20 4 -6 -14 -10 -47 -11 -47 0 -50 -1
-28 -11 l25 -11 -30 -7 c-16 -4 -48 -8 -70 -9 -45 -1 -77 -17 -59 -28 6 -5 14
-18 18 -30 8 -23 12 -26 56 -27 14 -1 24 -6 23 -13 -2 -7 2 -13 7 -13 6 0 10
-7 10 -15 0 -8 5 -15 11 -15 6 0 9 6 6 14 -8 21 21 56 46 56 29 0 51 -15 43
-29 -5 -7 2 -11 16 -11 18 0 20 -2 8 -10 -25 -15 3 -33 39 -25 32 7 40 20 19
28 -10 4 -10 6 -1 6 22 2 -8 51 -31 52 -17 1 -16 2 6 9 42 13 49 19 38 38 -5
9 -12 34 -15 55 -6 35 -8 37 -45 37 -21 0 -42 -4 -45 -10z m55 -160 c0 -5 -4
-10 -10 -10 -5 0 -10 5 -10 10 0 6 5 10 10 10 6 0 10 -4 10 -10z"/>
<path d="M1490 1316 c0 -9 30 -14 35 -6 4 6 -3 10 -14 10 -12 0 -21 -2 -21 -4z"/>
<path d="M1551 1291 c-18 -12 0 -21 28 -14 17 4 19 8 9 14 -16 11 -20 11 -37
0z"/>
</g>
</svg>
